<svg width="181" height="48" viewBox="0 0 181 48" fill="none" xmlns="http://www.w3.org/2000/svg">
<path d="M66.0314 13.1275V28.9166H75.1144V32.9346H61.8436V13.1275H66.0314Z" fill="white"/>
<path d="M81.4457 13.1275V32.9346H77.2579V13.1275H81.4457Z" fill="white"/>
<path d="M87.1974 13.1275L95.2617 24.6722V13.1275H99.4495V32.9346H95.9408L87.8199 21.3899V32.9346H83.6321V13.1275H87.1974Z" fill="white"/>
<path d="M113.779 13.1275V17.1455H105.827V20.7108H112.901V24.7288H105.827V28.9166H113.779V32.9346H101.64V13.1275H113.779Z" fill="white"/>
<path d="M122.991 12.8446C123.632 12.8446 124.293 12.92 124.972 13.0709C125.651 13.2219 126.302 13.4388 126.924 13.7217C127.565 13.9858 128.16 14.3065 128.707 14.6838C129.254 15.0422 129.716 15.4384 130.093 15.8722L127.66 19.1828C126.924 18.466 126.103 17.9095 125.198 17.5134C124.311 17.0984 123.463 16.8909 122.651 16.8909C121.935 16.8909 121.359 17.0418 120.925 17.3436C120.491 17.6266 120.275 18.0133 120.275 18.5037C120.275 19.0697 120.52 19.5035 121.01 19.8053C121.52 20.1072 122.151 20.3807 122.906 20.6259C123.661 20.8523 124.472 21.0881 125.339 21.3333C126.207 21.5786 127.018 21.9275 127.773 22.3803C128.527 22.8141 129.15 23.3989 129.64 24.1346C130.15 24.8703 130.404 25.8418 130.404 27.0491C130.404 27.8414 130.244 28.6054 129.923 29.341C129.603 30.0767 129.131 30.737 128.509 31.3218C127.886 31.8877 127.122 32.3498 126.217 32.7082C125.311 33.0478 124.274 33.2176 123.104 33.2176C122.35 33.2176 121.576 33.1233 120.784 32.9346C119.992 32.746 119.228 32.4819 118.492 32.1423C117.756 31.8028 117.077 31.4066 116.455 30.9539C115.851 30.4823 115.332 29.9824 114.898 29.4542L117.586 26.3983C118.341 27.1906 119.152 27.8508 120.02 28.379C120.888 28.8883 121.916 29.143 123.104 29.143C124.01 29.143 124.736 28.9638 125.283 28.6054C125.83 28.2281 126.103 27.7187 126.103 27.0774C126.103 26.5115 125.849 26.087 125.339 25.8041C124.849 25.5022 124.236 25.2476 123.5 25.0401C122.765 24.8137 121.953 24.5873 121.067 24.361C120.199 24.1346 119.397 23.8139 118.662 23.3989C117.926 22.965 117.303 22.3897 116.794 21.6729C116.304 20.956 116.058 20.0034 116.058 18.815C116.058 17.9661 116.228 17.1833 116.568 16.4664C116.907 15.7307 117.379 15.0988 117.983 14.5706C118.605 14.0236 119.341 13.5991 120.19 13.2973C121.039 12.9955 121.972 12.8446 122.991 12.8446Z" fill="#FF0000"/>
<path d="M146.962 17.1455H141.162V32.9346H136.974V17.1455H131.201V13.1275H146.962V17.1455Z" fill="#FF0000"/>
<path d="M157.539 29.624H149.899L148.626 32.9346H144.183L152.05 13.1275H155.445L163.34 32.9346H158.784L157.539 29.624ZM156.153 26.0304L153.747 19.6922L151.286 26.0304H156.153Z" fill="#FF0000"/>
<path d="M175.235 32.9346L170.764 25.3796H168.614V32.9346H164.426L164.319 13.1275H171.959C172.789 13.1275 173.688 13.2879 174.443 13.6086C175.197 13.9292 175.858 14.3631 176.424 14.9102C177.008 15.4572 177.47 16.108 177.81 16.8626C178.15 17.5983 178.319 18.3906 178.319 19.2394C178.319 20.5222 178.036 21.6351 177.471 22.5783C176.905 23.5215 176.131 24.2384 175.15 24.7288L180.328 32.9346H175.235ZM168.614 21.7578H171.642C172.321 21.7578 172.896 21.5408 173.368 21.107C173.839 20.6542 174.075 20.0977 174.075 19.4375C174.075 18.7961 173.839 18.2585 173.368 17.8246C172.896 17.3908 172.321 17.1738 171.642 17.1738H168.614V21.7578Z" fill="#FF0000"/>
<path d="M21.5522 0C21.5522 0 21.5522 0 21.5522 0C11.4952 0 1.6202 1.71502 1.20489 1.78712C0.507873 1.91077 0 2.51666 0 3.22456V29.5366L0.00256362 29.6395C0.0153816 29.8301 1.55098 40.6145 21.0498 47.8145C21.3741 47.9342 21.7304 47.9342 22.0547 47.8145C41.5561 40.6145 43.0892 29.8274 43.1018 29.6395L43.1044 3.22423C43.1044 2.51688 42.5962 1.91179 41.8995 1.7897C41.4869 1.71502 31.6119 0 21.5522 0C21.5522 0 21.5522 0 21.5522 0Z" fill="#FF0000"/>
<path fill-rule="evenodd" clip-rule="evenodd" d="M19.8745 25.3348V9.94275H12.3429V32.9142H19.8688L22.1397 25.3348H19.8745ZM23.6519 25.3348L21.3809 32.9142H31.0858V25.3348H23.6519ZM25.5606 31.9755L27.4292 30.5996L29.2977 31.9931L28.5849 29.7775L30.4534 28.4306H28.1422L27.4292 26.2035L26.7163 28.4306H24.4051L26.2736 29.7775L25.5606 31.9755ZM27.4292 22.9559L25.5606 24.3321L26.2736 22.1339L24.4051 20.7872H26.7163L27.4292 18.56L28.1422 20.7872H30.4534L28.5849 22.1339L29.2977 24.3495L27.4292 22.9559ZM25.5606 16.6651L27.4292 15.2892L29.2977 16.6768L28.5849 14.4554L30.4534 13.0911H28.1422L27.4292 10.8639L26.7163 13.0911H24.4051L26.2736 14.4554L25.5606 16.6651Z" fill="white"/>
</svg>
